<svg width="1021" height="852" viewBox="0 0 1021 852" fill="none" xmlns="http://www.w3.org/2000/svg">
<path d="M813.525 85.1016H1020.13V0H24.6492V296.176L109.083 333.56C141.31 309.402 185.975 295.882 235.481 295.882C327.471 295.882 387.305 331.333 395.537 390.716C399.735 421 392.308 449.161 374.624 470.011C351.003 497.861 309.275 513.349 253.95 514.801C177.877 516.76 110.836 487.942 65.1825 433.552L0 488.266C60.6758 560.55 147.873 600.006 246.418 600C249.655 600 252.922 599.957 256.182 599.872C357.526 597.214 411.822 557.719 439.524 525.056C473.085 485.488 487.399 433.627 479.831 379.029C473.06 330.188 446.456 286.991 404.917 257.396C361.5 226.463 304.493 210.779 235.48 210.779C190.209 210.779 147.279 219.525 109.751 235.771V85.1016H578.02V586.052H1020.13V500.95H663.122V335.577H929.321V250.476H663.122V85.1016H813.523H813.525Z" fill="black"/>
<path d="M121.046 848.099L76.5507 784.901H45.6601V848.099H4V653.402H91.5716C133.798 653.402 164.973 680.608 164.973 719.151C164.973 748.059 147.402 770.732 120.762 780.083L168.656 848.099H121.044H121.046ZM45.6601 746.64H87.0364C107.725 746.64 121.894 735.872 121.894 719.151C121.894 702.43 107.725 691.661 87.0364 691.661H45.6601V746.64Z" fill="black"/>
<path d="M332.184 817.492H245.463L232.992 848.099H186.231L265.584 653.402H312.345L391.698 848.099H344.654L332.184 817.492ZM317.731 782.066L288.823 710.934L259.916 782.066H317.729H317.731Z" fill="black"/>
<path d="M422.027 653.402H463.687L557.493 779.233V653.402H599.437V848.099H557.493L463.687 722.268V848.099H422.027V653.402Z" fill="black"/>
<path d="M637.698 750.607C637.698 695.91 685.31 650 741.14 650C770.614 650 797.821 662.469 816.808 682.591L786.483 709.798C775.148 696.762 758.994 687.975 741.14 687.975C708.549 687.975 680.775 716.883 680.775 750.608C680.775 784.617 708.549 813.525 741.14 813.525C758.994 813.525 775.148 804.738 786.483 791.702L816.808 818.909C797.819 838.747 770.612 851.5 741.14 851.5C685.309 851.5 637.698 805.303 637.698 750.607Z" fill="black"/>
<path d="M1020.29 653.402V848.099H978.635V767.615H889.93V848.099H848.27V653.402H889.93V729.921H978.635V653.402H1020.29Z" fill="black"/>
</svg>
