<?xml version="1.0" encoding="UTF-8"?>
<svg id="a" data-name="Layer 2" xmlns="http://www.w3.org/2000/svg" width="1080" height="800" viewBox="0 0 1080 800">
  <path d="M813.892,219.522h183.974v-75.779H111.435V407.474l75.184,33.289c28.697-21.512,68.469-33.551,112.552-33.551,81.913,0,135.192,31.568,142.522,84.445,3.738,26.967-2.875,52.043-18.622,70.609-21.033,24.799-58.19,38.59-107.454,39.883-67.74,1.745-127.437-23.916-168.089-72.348l-58.042,48.72c54.029,64.366,131.674,99.499,219.424,99.494,2.882,0,5.791-.038,8.694-.114,90.242-2.367,138.59-37.535,163.258-66.62,29.884-35.234,42.63-81.413,35.891-130.03-6.029-43.491-29.719-81.956-66.707-108.309-38.661-27.544-89.423-41.51-150.876-41.51-40.312,0-78.539,7.788-111.956,22.254V219.522h416.972v446.073h393.678v-75.779h-317.899v-147.257h237.038v-75.779h-237.038V219.522h133.925Z"/>
</svg>