<svg width="1080" height="800" viewBox="0 0 1080 800" fill="none" xmlns="http://www.w3.org/2000/svg">
<path d="M813.892 219.522H997.866V143.743H111.435V407.474L186.619 440.763C215.316 419.251 255.088 407.212 299.171 407.212C381.084 407.212 434.363 438.78 441.693 491.657C445.431 518.624 438.818 543.7 423.071 562.266C402.038 587.065 364.881 600.856 315.617 602.149C247.877 603.894 188.18 578.233 147.528 529.801L89.4861 578.521C143.515 642.887 221.16 678.02 308.91 678.015C311.792 678.015 314.701 677.977 317.604 677.901C407.846 675.534 456.194 640.366 480.862 611.281C510.746 576.047 523.492 529.868 516.753 481.251C510.724 437.76 487.034 399.295 450.046 372.942C411.385 345.398 360.623 331.432 299.17 331.432C258.858 331.432 220.631 339.22 187.214 353.686V219.522H604.186V665.595H997.864V589.816H679.965V442.559H917.003V366.78H679.965V219.522H813.89H813.892Z" fill="white"/>
</svg>
