<svg width="1080" height="1080" viewBox="0 0 1080 1080" fill="none" xmlns="http://www.w3.org/2000/svg">
<path d="M627.983 776.591L680.167 814.118C702.285 830.023 710.497 861.475 691.798 884.111L629.511 976.655L693.871 976.779L803.972 809.004L705.554 739.624L627.983 776.591Z" fill="white"/>
<path d="M218.826 683.255L127.956 756.172C117.431 764.618 114.27 784.247 128.183 796.276L206.905 864.334L238.64 824.538L182.613 779.927H291.643L218.826 683.255Z" fill="white"/>
<path d="M903.059 709.101V558.496C903.059 556.836 902.681 539.643 902.624 538.013C902.624 504.626 889.374 478.918 869.854 460.773H875.1C936.294 460.773 964.011 419.238 956.794 369.275C949.834 321.09 899.125 298.005 842.449 319.196L720.791 364.684C707.488 359.363 691.118 346.808 659.692 354.556L593.29 372.724C626.431 404.209 677.377 406.865 714.878 394.293L854.326 347.542C888.661 336.031 915.712 351.424 920.178 375.382C926.067 406.97 901.833 427.932 871.318 427.932H549.894L478.404 365.042C475.813 362.181 472.463 359.432 468.586 356.811L459.359 409.35C452.598 446.537 424.827 482.759 370.738 496.282C404.545 472.618 429.629 440.317 436.606 403.888L444.868 360.757L364.405 382.232C326.266 392.411 275.935 364.476 277.254 315.373C289.265 352.204 332.851 369.164 360.065 361.498L442.762 338.202L464.667 330.939C495.272 325.286 504.13 284.773 480.959 262.578L434.932 218.492C481.066 211.626 496.929 165.946 493.436 144.99C489.654 122.299 479.569 103.39 453.096 87.002C466.789 129.472 469.268 171.404 414.017 171.404H250.385C195.134 171.404 197.614 129.473 211.306 87.002C184.833 103.39 174.433 122.249 170.966 144.99C165.932 178.013 187.646 214.456 232.266 218.911L181.031 255.057C193.882 268.213 218.219 272.904 240.334 271.55L198.218 513.255C191.435 553.332 197.615 608.14 223.962 644.855L291.315 738.71H291.283L312.482 769.909C322.506 782.667 339.701 782.037 352.23 775.838L369.526 736.259C377.434 718.162 392.22 701.027 411.709 695.224L384.3 759.803C379.372 771.413 377.558 782.435 377.558 798.987V843.754L295.277 975.766H361.659L478.224 789.7L571.586 746.197C574.698 758.201 590.434 764.825 606.496 757.769L686.551 722.604L674.863 714.036C658.362 701.94 635.13 677.964 633.383 656.607L843.072 809.801C870.946 829.799 896.381 860.85 896.381 897.868V981.443H954.459V785.305L930.172 765.202C914.469 752.639 903.059 733.863 903.059 709.099V709.101ZM836.211 509.599H775.017V535.441H836.211V554.635H775.017V580.479H836.211V599.673H755.823V509.599H673.111V534.745C679.468 532.275 686.515 531.024 694.075 531.024C722.959 531.024 738.071 549.01 738.071 566.777C738.071 577.587 734.019 586.575 726.352 592.766C718.721 598.932 707.783 602.058 693.84 602.058C673.795 602.058 656.951 590.917 649.151 579.875L648.786 579.359L664.463 568.284L664.828 568.802C668.265 573.666 678.752 582.865 693.84 582.865C718.876 582.865 718.876 571.177 718.876 566.778C718.876 558.803 711.114 550.219 694.074 550.219C685.1 550.219 677.853 552.558 671.92 557.372L671.646 557.594L653.916 551.364V490.407H836.211V509.601V509.599Z" fill="white"/>
</svg>
