<?xml version="1.0" encoding="UTF-8"?>
<svg id="a" data-name="Layer 2" xmlns="http://www.w3.org/2000/svg" width="1080" height="1080" viewBox="0 0 1080 1080">
  <g>
    <path d="M627.983,776.591l52.184,37.527c22.118,15.905,30.33,47.357,11.631,69.993l-62.287,92.544,64.36,.124,110.101-167.775-98.418-69.38-77.571,36.968Z"/>
    <path d="M218.826,683.255l-90.87,72.917c-10.525,8.446-13.686,28.075,.227,40.104l78.722,68.058,31.735-39.796-56.027-44.611h109.03l-72.817-96.671Z"/>
  </g>
  <path d="M903.059,709.101v-150.605c0-1.66-.378-18.853-.435-20.483,0-33.387-13.25-59.095-32.77-77.24h5.246c61.194,0,88.911-41.535,81.694-91.498-6.96-48.185-57.669-71.27-114.345-50.079l-121.658,45.488c-13.303-5.321-29.673-17.876-61.099-10.128l-66.402,18.168c33.141,31.485,84.087,34.141,121.588,21.569l139.448-46.751c34.335-11.511,61.386,3.882,65.852,27.84,5.889,31.588-18.345,52.55-48.86,52.55h-321.424l-71.49-62.89c-2.591-2.861-5.941-5.61-9.818-8.231l-9.227,52.539c-6.761,37.187-34.532,73.409-88.621,86.932,33.807-23.664,58.891-55.965,65.868-92.394l8.262-43.131-80.463,21.475c-38.139,10.179-88.47-17.756-87.151-66.859,12.011,36.831,55.597,53.791,82.811,46.125l82.697-23.296,21.905-7.263c30.605-5.653,39.463-46.166,16.292-68.361l-46.027-44.086c46.134-6.866,61.997-52.546,58.504-73.502-3.782-22.691-13.867-41.6-40.34-57.988,13.693,42.47,16.172,84.402-39.079,84.402H250.385c-55.251,0-52.771-41.931-39.079-84.402-26.473,16.388-36.873,35.247-40.34,57.988-5.034,33.023,16.68,69.466,61.3,73.921l-51.235,36.146c12.851,13.156,37.188,17.847,59.303,16.493l-42.116,241.705c-6.783,40.077-.603,94.885,25.744,131.6l67.353,93.855h-.032l21.199,31.199c10.024,12.758,27.219,12.128,39.748,5.929l17.296-39.579c7.908-18.097,22.694-35.232,42.183-41.035l-27.409,64.579c-4.928,11.61-6.742,22.632-6.742,39.184v44.767l-82.281,132.012h66.382l116.565-186.066,93.362-43.503c3.112,12.004,18.848,18.628,34.91,11.572l80.055-35.165-11.688-8.568c-16.501-12.096-39.733-36.072-41.48-57.429l209.689,153.194c27.874,19.998,53.309,51.049,53.309,88.067v83.575h58.078v-196.138l-24.287-20.103c-15.703-12.563-27.113-31.339-27.113-56.103Zm-66.848-199.502h-61.194v25.842h61.194v19.194h-61.194v25.844h61.194v19.194h-80.388v-90.074h-82.712v25.146c6.357-2.47,13.404-3.721,20.964-3.721,28.884,0,43.996,17.986,43.996,35.753,0,10.81-4.052,19.798-11.719,25.989-7.631,6.166-18.569,9.292-32.512,9.292-20.045,0-36.889-11.141-44.689-22.183l-.365-.516,15.677-11.075,.365,.518c3.437,4.864,13.924,14.063,29.012,14.063,25.036,0,25.036-11.688,25.036-16.087,0-7.975-7.762-16.559-24.802-16.559-8.974,0-16.221,2.339-22.154,7.153l-.274,.222-17.73-6.23v-60.957h182.295v19.194Z"/>
</svg>