<?xml version="1.0" encoding="UTF-8"?>
<svg id="a" data-name="Layer 2" xmlns="http://www.w3.org/2000/svg" width="950" height="1080" viewBox="0 0 950 1080">
  <g>
    <path d="M190.753,973.124l-31.503-44.745h-21.871v44.745h-29.496v-137.848h62.002c29.897,0,51.969,19.262,51.969,46.551,0,20.467-12.44,36.52-31.302,43.141l33.91,48.156h-33.71Zm-53.374-71.834h29.295c14.648,0,24.68-7.624,24.68-19.463s-10.032-19.463-24.68-19.463h-29.295v38.926Z"/>
    <path d="M340.242,951.454h-61.4l-8.829,21.67h-33.108l56.183-137.848h33.108l56.183,137.848h-33.308l-8.829-21.67Zm-10.233-25.082l-20.467-50.363-20.467,50.363h40.933Z"/>
    <path d="M403.852,835.276h29.496l66.416,89.09v-89.09h29.697v137.848h-29.697l-66.416-89.09v89.09h-29.496v-137.848Z"/>
    <path d="M556.551,904.099c0-38.726,33.71-71.231,73.238-71.231,20.868,0,40.131,8.828,53.574,23.075l-21.47,19.263c-8.026-9.23-19.463-15.451-32.104-15.451-23.075,0-42.739,20.467-42.739,44.345,0,24.079,19.664,44.546,42.739,44.546,12.641,0,24.078-6.221,32.104-15.451l21.47,19.263c-13.444,14.046-32.707,23.075-53.574,23.075-39.529,0-73.238-32.707-73.238-71.433Z"/>
    <path d="M827.435,835.276v137.848h-29.496v-56.984h-62.804v56.984h-29.496v-137.848h29.496v54.176h62.804v-54.176h29.496Z"/>
  </g>
  <g>
    <g>
      <path d="M547.036,622.245l41.26,29.671c17.488,12.576,23.98,37.443,9.196,55.34l-49.248,73.171,50.887,.098,87.053-132.653-77.815-54.856-61.333,29.229Z"/>
      <path d="M223.532,548.448l-71.847,57.653c-8.322,6.678-10.821,22.198,.179,31.708l62.242,53.811,25.092-31.465-44.298-35.272h86.206l-57.574-76.434Z"/>
    </g>
    <path d="M764.527,568.883v-119.077c0-1.312-.299-14.906-.344-16.195,0-26.398-10.477-46.724-25.91-61.07h4.148c48.383,0,70.298-32.84,64.592-72.344-5.503-38.098-45.596-56.35-90.408-39.595l-96.19,35.965c-10.518-4.207-23.461-14.134-48.309-8.008l-52.501,14.365c26.204,24.894,66.484,26.994,96.135,17.053l110.256-36.964c27.147-9.101,48.535,3.07,52.067,22.012,4.656,24.975-14.505,41.549-38.632,41.549h-254.137l-56.524-49.724c-2.049-2.262-4.697-4.435-7.763-6.508l-7.295,41.541c-5.346,29.402-27.303,58.042-70.069,68.733,26.729-18.71,46.562-44.249,52.08-73.052l6.532-34.102-63.619,16.98c-30.155,8.048-69.95-14.039-68.907-52.863,9.497,29.121,43.958,42.531,65.475,36.469l65.385-18.419,17.319-5.743c24.198-4.47,31.202-36.502,12.881-54.05l-36.392-34.857c36.477-5.429,49.019-41.546,46.257-58.115-2.99-17.941-10.964-32.892-31.895-45.849,10.826,33.58,12.787,66.733-30.898,66.733H248.484c-43.685,0-41.724-33.153-30.898-66.733-20.931,12.957-29.154,27.868-31.895,45.849-3.98,26.11,13.188,54.924,48.468,58.446l-40.509,28.579c10.161,10.402,29.403,14.111,46.888,13.041l-33.299,191.106c-5.363,31.688-.477,75.022,20.354,104.051l53.253,74.208h-.025l16.761,24.667c7.926,10.087,21.521,9.589,31.427,4.688l13.675-31.293c6.253-14.309,17.943-27.857,33.353-32.445l-21.671,51.06c-3.896,9.18-5.331,17.895-5.331,30.981v35.396l-65.056,104.377h52.486l92.163-147.115,73.817-34.396c2.46,9.491,14.903,14.728,27.602,9.15l63.296-27.804-9.241-6.774c-13.046-9.564-31.415-28.521-32.797-45.407l165.792,121.124c22.039,15.812,42.149,40.363,42.149,69.631v66.08h45.92v-155.078l-19.203-15.895c-12.416-9.933-21.437-24.778-21.437-44.358Zm-52.854-157.739h-48.383v20.433h48.383v15.176h-48.383v20.434h48.383v15.176h-63.56v-71.218h-65.397v19.882c5.026-1.953,10.598-2.942,16.575-2.942,22.837,0,34.786,14.221,34.786,28.269,0,8.547-3.204,15.653-9.266,20.549-6.033,4.875-14.682,7.347-25.706,7.347-15.849,0-29.167-8.809-35.333-17.539l-.289-.408,12.395-8.757,.289,.409c2.718,3.846,11.009,11.119,22.938,11.119,19.795,0,19.795-9.241,19.795-12.72,0-6.306-6.137-13.093-19.61-13.093-7.096,0-12.826,1.85-17.517,5.655l-.217,.176-14.019-4.926v-48.196h144.134v15.176Z"/>
  </g>
</svg>