<svg width="950" height="1080" viewBox="0 0 950 1080" fill="none" xmlns="http://www.w3.org/2000/svg">
<path d="M190.753 973.124L159.25 928.379H137.379V973.124H107.883V835.276H169.885C199.782 835.276 221.854 854.538 221.854 881.827C221.854 902.294 209.414 918.347 190.552 924.968L224.462 973.124H190.752H190.753ZM137.379 901.29H166.674C181.322 901.29 191.354 893.666 191.354 881.827C191.354 869.988 181.322 862.364 166.674 862.364H137.379V901.29Z" fill="white"/>
<path d="M340.242 951.454H278.842L270.013 973.124H236.905L293.088 835.276H326.196L382.379 973.124H349.071L340.242 951.454ZM330.009 926.372L309.542 876.009L289.075 926.372H330.008H330.009Z" fill="white"/>
<path d="M403.852 835.276H433.348L499.764 924.366V835.276H529.461V973.124H499.764L433.348 884.034V973.124H403.852V835.276Z" fill="white"/>
<path d="M556.551 904.099C556.551 865.373 590.261 832.868 629.789 832.868C650.657 832.868 669.92 841.696 683.363 855.943L661.893 875.206C653.867 865.976 642.43 859.755 629.789 859.755C606.714 859.755 587.05 880.222 587.05 904.1C587.05 928.179 606.714 948.646 629.789 948.646C642.43 948.646 653.867 942.425 661.893 933.195L683.363 952.458C669.919 966.504 650.656 975.533 629.789 975.533C590.26 975.533 556.551 942.825 556.551 904.099Z" fill="white"/>
<path d="M827.435 835.276V973.124H797.939V916.14H735.135V973.124H705.639V835.276H735.135V889.452H797.939V835.276H827.435Z" fill="white"/>
<path d="M547.036 622.245L588.296 651.916C605.784 664.492 612.276 689.359 597.492 707.256L548.244 780.427L599.131 780.525L686.184 647.872L608.369 593.016L547.036 622.245Z" fill="white"/>
<path d="M223.532 548.447L151.685 606.1C143.363 612.778 140.864 628.298 151.864 637.808L214.106 691.619L239.198 660.154L194.9 624.882H281.106L223.532 548.447Z" fill="white"/>
<path d="M764.527 568.883V449.806C764.527 448.494 764.228 434.9 764.183 433.611C764.183 407.213 753.706 386.887 738.273 372.541H742.421C790.804 372.541 812.719 339.701 807.013 300.197C801.51 262.099 761.417 243.847 716.605 260.602L620.415 296.567C609.897 292.36 596.954 282.433 572.106 288.559L519.605 302.924C545.809 327.818 586.089 329.918 615.74 319.977L725.996 283.013C753.143 273.912 774.531 286.083 778.063 305.025C782.719 330 763.558 346.574 739.431 346.574H485.294L428.77 296.85C426.721 294.588 424.073 292.415 421.007 290.342L413.712 331.883C408.366 361.285 386.409 389.925 343.643 400.616C370.372 381.906 390.205 356.367 395.723 327.564L402.255 293.462L338.636 310.442C308.481 318.49 268.686 296.403 269.729 257.579C279.226 286.7 313.687 300.11 335.204 294.048L400.589 275.629L417.908 269.886C442.106 265.416 449.11 233.384 430.789 215.836L394.397 180.979C430.874 175.55 443.416 139.433 440.654 122.864C437.664 104.923 429.69 89.9716 408.759 77.0146C419.585 110.595 421.546 143.748 377.861 143.748H248.484C204.799 143.748 206.76 110.595 217.586 77.0146C196.655 89.9716 188.432 104.883 185.691 122.864C181.711 148.974 198.879 177.788 234.159 181.31L193.65 209.889C203.811 220.291 223.053 224 240.538 222.93L207.239 414.036C201.876 445.724 206.762 489.058 227.593 518.087L280.846 592.295H280.821L297.582 616.962C305.508 627.049 319.103 626.551 329.009 621.65L342.684 590.357C348.937 576.048 360.627 562.5 376.037 557.912L354.366 608.972C350.47 618.152 349.035 626.867 349.035 639.953V675.349L283.979 779.726H336.465L428.628 632.611L502.445 598.215C504.905 607.706 517.348 612.943 530.047 607.365L593.343 579.561L584.102 572.787C571.056 563.223 552.687 544.266 551.305 527.38L717.097 648.504C739.136 664.316 759.246 688.867 759.246 718.135V784.215H805.166V629.137L785.963 613.242C773.547 603.309 764.526 588.464 764.526 568.884L764.527 568.883ZM711.673 411.144H663.29V431.577H711.673V446.753H663.29V467.187H711.673V482.363H648.113V411.145H582.716V431.027C587.742 429.074 593.314 428.085 599.291 428.085C622.128 428.085 634.077 442.306 634.077 456.354C634.077 464.901 630.873 472.007 624.811 476.903C618.778 481.778 610.129 484.25 599.105 484.25C583.256 484.25 569.938 475.441 563.772 466.711L563.483 466.303L575.878 457.546L576.167 457.955C578.885 461.801 587.176 469.074 599.105 469.074C618.9 469.074 618.9 459.833 618.9 456.354C618.9 450.048 612.763 443.261 599.29 443.261C592.194 443.261 586.464 445.111 581.773 448.916L581.556 449.092L567.537 444.166V395.97H711.671V411.146L711.673 411.144Z" fill="white"/>
</svg>
